<?xml version="1.0" encoding="UTF-8" standalone="no"?>
<!-- Created with Inkscape (http://www.inkscape.org/) -->

<svg
   xmlns:dc="http://purl.org/dc/elements/1.1/"
   xmlns:cc="http://creativecommons.org/ns#"
   xmlns:rdf="http://www.w3.org/1999/02/22-rdf-syntax-ns#"
   xmlns:svg="http://www.w3.org/2000/svg"
   xmlns="http://www.w3.org/2000/svg"
   xmlns:sodipodi="http://sodipodi.sourceforge.net/DTD/sodipodi-0.dtd"
   xmlns:inkscape="http://www.inkscape.org/namespaces/inkscape"
   width="25"
   height="25"
   viewBox="0 0 24.999999 24.999999"
   id="svg4375"
   version="1.1"
   inkscape:version="0.91 r13725"
   sodipodi:docname="cal.svg">
  <defs
     id="defs4377" />
  <sodipodi:namedview
     id="base"
     pagecolor="#ffffff"
     bordercolor="#666666"
     borderopacity="1.0"
     inkscape:pageopacity="0.0"
     inkscape:pageshadow="2"
     inkscape:zoom="7.919596"
     inkscape:cx="11.390844"
     inkscape:cy="1.4927327"
     inkscape:document-units="px"
     inkscape:current-layer="layer1"
     showgrid="false"
     fit-margin-top="0"
     fit-margin-left="0"
     fit-margin-right="0"
     fit-margin-bottom="0"
     units="px"
     inkscape:window-width="1231"
     inkscape:window-height="1006"
     inkscape:window-x="49"
     inkscape:window-y="0"
     inkscape:window-maximized="1"
     inkscape:snap-page="true" />
  <metadata
     id="metadata4380">
    <rdf:RDF>
      <cc:Work
         rdf:about="">
        <dc:format>image/svg+xml</dc:format>
        <dc:type
           rdf:resource="http://purl.org/dc/dcmitype/StillImage" />
        <dc:title />
      </cc:Work>
    </rdf:RDF>
  </metadata>
  <g
     inkscape:label="Layer 1"
     inkscape:groupmode="layer"
     id="layer1"
     transform="translate(-481.78571,-765.57648)">
    <g
       style="font-style:normal;font-variant:normal;font-weight:normal;font-stretch:normal;font-size:38.54701614px;line-height:125%;font-family:icomoon;-inkscape-font-specification:icomoon;letter-spacing:0px;word-spacing:0px;fill:#333333;fill-opacity:1;stroke:none;stroke-width:1px;stroke-linecap:butt;stroke-linejoin:miter;stroke-opacity:1"
       id="text4746">
      <path
         style="font-style:normal;font-variant:normal;font-weight:normal;font-stretch:normal;font-size:24.74746323px;font-family:icomoon;-inkscape-font-specification:icomoon;fill:#333333;fill-opacity:1"
         d="m 481.97577,788.90289 c -0.0362,1.02083 1.02369,1.70295 1.9667,1.54672 7.12931,-0.005 14.25911,0.0101 21.38812,-0.008 0.96467,-0.10984 1.54298,-1.11834 1.39264,-2.02914 0,-4.47683 0,-8.95365 0,-13.43047 -8.24915,0 -16.49831,0 -24.74746,0 0,4.64015 0,9.28029 0,13.92044 z m 17.01388,-12.37373 c 2.06229,0 4.12458,0 6.18687,0 0,1.03114 0,2.06229 0,3.09343 -2.06229,0 -4.12458,0 -6.18687,0 0,-1.03114 0,-2.06229 0,-3.09343 z m 0,4.64015 c 2.06229,0 4.12458,0 6.18687,0 0,1.03114 0,2.06229 0,3.09343 -2.06229,0 -4.12458,0 -6.18687,0 0,-1.03114 0,-2.06229 0,-3.09343 z m 0,4.64015 c 2.06229,0 4.12458,0 6.18687,0 0,1.03114 0,2.06229 0,3.09343 -2.06229,0 -4.12458,0 -6.18687,0 0,-1.03114 0,-2.06229 0,-3.09343 z m -7.73358,-9.2803 c 2.06229,0 4.12457,0 6.18686,0 0,1.03114 0,2.06229 0,3.09343 -2.06229,0 -4.12457,0 -6.18686,0 0,-1.03114 0,-2.06229 0,-3.09343 z m 0,4.64015 c 2.06229,0 4.12457,0 6.18686,0 0,1.03114 0,2.06229 0,3.09343 -2.06229,0 -4.12457,0 -6.18686,0 0,-1.03114 0,-2.06229 0,-3.09343 z m 0,4.64015 c 2.06229,0 4.12457,0 6.18686,0 0,1.03114 0,2.06229 0,3.09343 -2.06229,0 -4.12457,0 -6.18686,0 0,-1.03114 0,-2.06229 0,-3.09343 z m -7.73358,-9.2803 c 2.06229,0 4.12457,0 6.18686,0 0,1.03114 0,2.06229 0,3.09343 -2.06229,0 -4.12457,0 -6.18686,0 0,-1.03114 0,-2.06229 0,-3.09343 z m 0,4.64015 c 2.06229,0 4.12457,0 6.18686,0 0,1.03114 0,2.06229 0,3.09343 -2.06229,0 -4.12457,0 -6.18686,0 0,-1.03114 0,-2.06229 0,-3.09343 z m 0,4.64015 c 2.06229,0 4.12457,0 6.18686,0 0,1.03114 0,2.06229 0,3.09343 -2.06229,0 -4.12457,0 -6.18686,0 0,-1.03114 0,-2.06229 0,-3.09343 z m 21.65403,-17.01388 c -1.03115,0 -2.06229,0 -3.09344,0 -0.0323,-0.84429 0.0694,-1.7052 -0.0604,-2.53758 -0.40868,-1.10836 -1.79565,-0.29145 -1.48629,0.66415 0,0.62448 0,1.24895 0,1.87343 -4.12458,0 -8.24916,0 -12.37374,0 -0.0323,-0.84429 0.0694,-1.7052 -0.0604,-2.53758 -0.40868,-1.10836 -1.79565,-0.29145 -1.48629,0.66415 0,0.62448 0,1.24895 0,1.87343 -1.17989,0.0374 -2.37532,-0.0797 -3.54431,0.068 -0.89183,0.2499 -1.20203,1.20702 -1.09584,2.03872 0,0.84449 0,1.68897 0,2.53346 8.24915,0 16.49831,0 24.74746,0 -0.0377,-1.17756 0.0801,-2.3711 -0.068,-3.53751 -0.22658,-0.58917 -0.81853,-1.12032 -1.47874,-1.10264 z m -16.72388,3.43178 c -0.88202,0.96616 -2.71236,0.21329 -2.61008,-1.11171 -0.11266,-0.80776 1.05922,-1.90752 0.77336,-0.58341 -0.1278,0.68567 0.19093,1.64317 1.07545,1.30843 0.74049,-0.38585 0.38853,-1.31519 0.47126,-1.98496 0.80056,0.10985 1.08422,1.75998 0.29001,2.37165 z m 13.92045,0 c -0.88202,0.96616 -2.71236,0.21329 -2.61008,-1.11171 -0.11266,-0.80776 1.05922,-1.90752 0.77336,-0.58341 -0.1278,0.68567 0.19092,1.64317 1.07545,1.30843 0.74049,-0.38584 0.38853,-1.31519 0.47126,-1.98496 0.80056,0.10985 1.08422,1.75998 0.29001,2.37165 z"
         id="path4136"
         inkscape:connector-curvature="0" />
    </g>
  </g>
</svg>
