<?xml version="1.0" encoding="UTF-8" standalone="no"?>
<!-- Created with Inkscape (http://www.inkscape.org/) -->

<svg
   xmlns:dc="http://purl.org/dc/elements/1.1/"
   xmlns:cc="http://creativecommons.org/ns#"
   xmlns:rdf="http://www.w3.org/1999/02/22-rdf-syntax-ns#"
   xmlns:svg="http://www.w3.org/2000/svg"
   xmlns="http://www.w3.org/2000/svg"
   xmlns:sodipodi="http://sodipodi.sourceforge.net/DTD/sodipodi-0.dtd"
   xmlns:inkscape="http://www.inkscape.org/namespaces/inkscape"
   width="43.744438mm"
   height="43.744438mm"
   viewBox="0 0 154.99999 154.99998"
   id="svg3656"
   version="1.1"
   inkscape:version="0.91 r13725"
   sodipodi:docname="gynecologie.svg">
  <defs
     id="defs3658" />
  <sodipodi:namedview
     id="base"
     pagecolor="#ffffff"
     bordercolor="#666666"
     borderopacity="1.0"
     inkscape:pageopacity="0.0"
     inkscape:pageshadow="2"
     inkscape:zoom="1.979899"
     inkscape:cx="-0.28638469"
     inkscape:cy="119.31285"
     inkscape:document-units="px"
     inkscape:current-layer="layer1"
     showgrid="false"
     fit-margin-top="0"
     fit-margin-left="0"
     fit-margin-right="0"
     fit-margin-bottom="0"
     inkscape:window-width="1231"
     inkscape:window-height="1006"
     inkscape:window-x="49"
     inkscape:window-y="0"
     inkscape:window-maximized="1" />
  <metadata
     id="metadata3661">
    <rdf:RDF>
      <cc:Work
         rdf:about="">
        <dc:format>image/svg+xml</dc:format>
        <dc:type
           rdf:resource="http://purl.org/dc/dcmitype/StillImage" />
        <dc:title></dc:title>
      </cc:Work>
    </rdf:RDF>
  </metadata>
  <g
     inkscape:label="Layer 1"
     inkscape:groupmode="layer"
     id="layer1"
     transform="translate(49.804409,-426.07828)">
    <rect
       style="fill:#ff7a7a;fill-opacity:0;stroke:none;stroke-width:40;stroke-miterlimit:4;stroke-dasharray:none;stroke-dashoffset:0;stroke-opacity:1"
       id="rect3685"
       width="155"
       height="155"
       x="-49.804409"
       y="426.07828" />
    <path
       sodipodi:nodetypes="ssssssssscsssssssccscssssssssssssssssssssssssssssscssssscscsssssccsssssssssccc"
       inkscape:connector-curvature="0"
       id="path4488"
       d="m 40.693794,555.69873 c -0.4364,-0.70611 -1.36494,-0.93064 -2.06342,-0.49895 -0.69848,0.43168 -2.68628,-0.0393 -4.417331,-1.04666 -11.187621,-6.51036 -16.403252,-22.26456 -10.866651,-32.82348 1.79198,-3.4175 2.34964,-3.65948 4.615411,-2.00272 1.41743,1.03646 3.28342,4.03789 4.14664,6.66987 1.83685,5.60058 9.262311,10.61298 13.656282,9.21838 6.745011,-2.14078 0.63628,-17.84447 -6.941491,-17.84447 -1.56038,0 -3.23381,-0.64196 -3.71873,-1.42657 -0.484911,-0.78461 -1.646221,-1.40615 -2.580681,-1.38119 -0.36922,0.01 -0.56836,0.0981 -0.63008,0.24285 -0.38422,0.90104 4.556431,3.99148 6.946301,3.99148 3.03489,0 8.390281,6.52526 8.390281,10.22312 0,7.44516 -11.915661,2.74594 -14.190352,-5.59631 -0.97762,-3.58531 -2.86995,-6.13865 -5.75869,-7.77024 -3.524191,-1.99049 -4.263921,-3.28093 -4.088851,-7.13284 0.0709,-1.55992 0.0306,-3.04863 -0.0773,-3.64408 -0.0622,-0.34301 -0.40917,-1.19447 -0.69589,-1.87985 -0.15427,-0.48454 -0.30428,-0.69636 -0.52687,-0.91797 -0.29711,-0.22035 -0.53034,-0.43218 -1.02148,-0.71536 -1.92436,-1.10957 0.0292,-0.24987 1.08538,0.52779 0.24217,0.19302 0.28858,0.30106 0.44265,0.52447 0.25734,0.37317 0.51131,0.85144 0.74569,1.24284 0.53065,0.88615 0.79806,2.52391 0.85591,4.08307 0.19919,5.36861 5.284741,7.70547 7.809791,4.17283 4.167671,-5.83072 23.896133,-6.36083 27.260063,-0.73248 0.62745,1.0498 2.071841,1.90874 3.209771,1.90874 1.13793,0 2.06897,0.96293 2.06897,2.13985 0,1.17692 0.48524,2.13985 1.07832,2.13985 1.86567,0 5.027561,8.70923 5.116991,14.09443 0.09,5.41692 -3.779851,14.87458 -7.683551,18.77827 -2.24334,2.24335 -6.355351,4.49415 -9.211011,5.04188 -0.78461,0.15049 -1.74755,0.41804 -2.13985,0.59456 -2.293471,1.03195 -10.147802,0.90043 -10.816232,-0.18111 z M 2.6501099,518.01678 c -2.15768002,-1.19007 -3.92306,-2.83767 -3.92306,-3.66133 0,-0.82366 -2.324171,-4.33391 -5.164831,-7.80057 -4.6114109,-5.62762 -5.8050609,-6.30299 -11.1398719,-6.30299 -3.28627,0 -7.221161,-0.99835 -8.744191,-2.21855 -2.63329,-2.1097 -2.60364,-2.13793 0.60445,-0.57541 1.855481,0.90372 5.386231,1.33697 7.846111,0.96278 5.016781,-0.76314 8.9352119,0.86021 12.3976819,5.13619 1.72788,2.13383 3.851521,2.82676 8.147431,2.65843 4.89809,-0.19192 6.39899,0.47184 9.5591711,4.22751 2.06184,2.45035 3.55246,5.493 3.3125,6.76145 -0.58649,3.10018 -7.9109611,3.56167 -12.8953911,0.81249 z M 62.447037,505.00711 c -2.678691,-2.67869 -0.72713,-9.56903 3.91863,-13.8355 2.900691,-2.66388 5.063731,-6.1445 5.349621,-8.60826 0.353744,-3.04849 1.980494,-5.04087 6.186225,-7.57666 l 5.70627,-3.44051 -4.99299,4.26388 c -4.725761,4.03569 -5.002491,4.76964 -5.170611,13.71372 -0.14564,7.74852 -0.76829,10.07857 -3.458444,12.9421 -3.282841,3.49443 -5.752881,4.32705 -7.538701,2.54123 z M 31.613693,492.48625 c -2.72448,-2.90008 -3.30572,-5.17038 -3.45844,-13.50854 -0.17533,-9.57194 -0.40808,-10.21981 -5.176561,-14.40865 l -4.99299,-4.38605 5.37837,3.27228 c 3.132351,1.90577 5.719601,4.76162 6.195501,6.8387 1.77476,7.746 2.34644,8.7882 5.644961,10.29111 2.23723,1.01935 3.72788,3.20444 4.31271,6.32184 1.71637,9.14903 -2.05131,11.80873 -7.903551,5.57931 z m 22.489893,-12.91958 c -1.17915,-2.58795 -1.20144,-4.49596 -0.0812,-6.95452 0.84905,-1.86345 1.1997,-5.95294 0.77924,-9.08773 -0.42959,-3.2028 0.0845,-5.85374 0.69207,-6.59984 1.15842,-1.42258 2.02285,-2.82489 2.09201,-3.40565 0.0709,-0.59517 0.16008,-1.61234 0.0896,-2.06292 -0.29321,-1.8734 0.0701,-0.36929 0.22008,0.79676 0.031,0.24084 0.0971,1.30155 -0.0167,2.45614 -0.0678,0.68771 -1.3584,2.2854 -1.89216,3.99261 -0.50236,1.60675 0.89263,6.40012 2.6986,10.25595 2.730451,5.82962 3.008621,7.6141 1.651291,10.59311 -2.072081,4.54771 -4.165531,4.55312 -6.232731,0.0161 z"
       style="fill:#666666;fill-opacity:1" />
  </g>
</svg>
