<?xml version="1.0" encoding="UTF-8" standalone="no"?>
<!-- Created with Inkscape (http://www.inkscape.org/) -->

<svg
   xmlns:dc="http://purl.org/dc/elements/1.1/"
   xmlns:cc="http://creativecommons.org/ns#"
   xmlns:rdf="http://www.w3.org/1999/02/22-rdf-syntax-ns#"
   xmlns:svg="http://www.w3.org/2000/svg"
   xmlns="http://www.w3.org/2000/svg"
   xmlns:sodipodi="http://sodipodi.sourceforge.net/DTD/sodipodi-0.dtd"
   xmlns:inkscape="http://www.inkscape.org/namespaces/inkscape"
   width="43.744438mm"
   height="43.744438mm"
   viewBox="0 0 154.99999 154.99998"
   id="svg3656"
   version="1.1"
   inkscape:version="0.91 r13725"
   sodipodi:docname="psychologie.svg">
  <defs
     id="defs3658" />
  <sodipodi:namedview
     id="base"
     pagecolor="#ffffff"
     bordercolor="#666666"
     borderopacity="1.0"
     inkscape:pageopacity="0.0"
     inkscape:pageshadow="2"
     inkscape:zoom="1.979899"
     inkscape:cx="30.006094"
     inkscape:cy="117.67063"
     inkscape:document-units="px"
     inkscape:current-layer="layer1"
     showgrid="false"
     fit-margin-top="0"
     fit-margin-left="0"
     fit-margin-right="0"
     fit-margin-bottom="0"
     inkscape:window-width="1231"
     inkscape:window-height="1006"
     inkscape:window-x="49"
     inkscape:window-y="0"
     inkscape:window-maximized="1" />
  <metadata
     id="metadata3661">
    <rdf:RDF>
      <cc:Work
         rdf:about="">
        <dc:format>image/svg+xml</dc:format>
        <dc:type
           rdf:resource="http://purl.org/dc/dcmitype/StillImage" />
        <dc:title></dc:title>
      </cc:Work>
    </rdf:RDF>
  </metadata>
  <g
     inkscape:label="Layer 1"
     inkscape:groupmode="layer"
     id="layer1"
     transform="translate(80.096886,-424.43607)">
    <rect
       style="fill:#ff7a7a;fill-opacity:0;stroke:none;stroke-width:40;stroke-miterlimit:4;stroke-dasharray:none;stroke-dashoffset:0;stroke-opacity:1"
       id="rect3685"
       width="155"
       height="155"
       x="-80.096886"
       y="424.43607" />
    <path
       style="fill:#666666;fill-opacity:1"
       d="m -21.734504,552.58248 -0.9603,-7.24223 -9.741636,0.3349 c -12.507852,0.42998 -14.951062,-1.31091 -13.784922,-9.82238 0.49407,-3.60617 0.22264,-6.48522 -0.66303,-7.03283 -0.82474,-0.50994 -1.16023,-1.81178 -0.74552,-2.89297 0.1968,-0.51309 2.3932,-1.27386 2.29973,-1.76591 -0.10352,-0.54481 -2.52696,-0.80661 -2.9258,-1.05321 -0.75906,-0.46934 -1.00624,-2.3436 -0.54926,-4.16506 0.63487,-2.53065 0.12922,-3.49532 -2.14389,-4.09 -4.89755,-1.28128 -4.8646,-4.61111 0.12588,-12.72513 3.5878,-5.83338 4.78746,-9.49659 4.96132,-15.14945 0.46535,-15.13019 11.411541,-32.37622 24.689818,-38.89949 7.407391,-3.63906 9.674491,-4.03129 23.3007531,-4.03129 12.7801409,0 16.2443919,0.51997 22.5903519,3.3907 25.698284,11.62518 32.740844,44.29581 14.400154,66.8027 -2.703782,3.31795 -5.776413,7.65065 -6.828083,9.62822 -2.75633,5.18304 -2.42416,23.89151 0.54267,30.56233 l 2.398661,5.39335 -28.0032939,0 -28.0032831,0 z M 10.49492,514.04836 c 0.38113,-4.4195 2.35645,-4.10837 3.85346,-1.68513 1.92678,3.11893 9.985441,0.18874 10.480451,-2.81474 0.620611,-3.76565 1.776201,-4.62151 6.030711,-4.67424 2.26578,-0.0281 4.345751,-1.47249 4.135981,-3.29143 -0.419,-3.63319 0.72008,-5.1585 3.246932,-6.30642 0,0 2.70502,-4.80519 2.70892,-6.47832 0.003,-1.61691 0.26276,-8.06393 -2.61247,-10.73493 -1.787422,-1.66046 -2.470132,-2.43148 -1.11971,-3.87253 0.77015,-0.82185 -0.642912,-4.80731 -2.384352,-5.90265 -1.515911,-1.01167 -2.685621,-0.8302 -2.600951,-2.2694 0.0963,-1.30769 -0.7397,-2.75351 -1.76397,-2.79606 -2.39464,-0.0995 -2.49023,0.0291 -2.49023,-2.4694 0,-1.52548 -4.347751,-2.4177 -5.630891,-2.06153 -2.39924,0.66598 -2.85834,0.0799 -3.11787,-1.30254 -0.22607,-1.20424 -4.304231,-3.16883 -5.357761,-2.64087 -0.83397,0.41795 -2.23966,1.02742 -4.1982999,-0.58626 -0.51521,-0.42448 -6.428771,-1.23654 -7.042101,0.49408 -2.28917003,0.0354 -10.774911,-0.70908 -11.411512,1.81914 -0.19505,0.77459 -2.6115901,1.68357 -4.7684301,1.23546 -3.14679,-0.65377 -5.393931,0.78592 -6.607241,2.87645 -1.07093,1.84524 -3.47217,2.87646 -4.53566,2.87646 -1.063481,0 -1.933611,0.82697 -1.933611,1.83771 0,1.01074 -1.27613,2.93082 -2.83585,4.26686 -3.184147,2.72751 -7.235249,7.94642 -4.057927,11.43809 1.969284,2.16413 0.698021,1.05449 2.845395,3.00809 1.233192,0.44845 2.289432,-0.20157 2.246352,2.85014 1.61431,2.44126 4.032811,2.89645 6.114891,3.27113 8.107451,1.45896 8.200561,-0.96037 9.360711,3.50451 0.76785,2.95513 0.64855,7.20455 6.5786711,7.42496 2.97648,-0.66919 4.90029,0.16468 6.73881097,2.6563 3.07519003,0.26781 3.63873003,4.42163 4.59081003,9.07597 0.31931,1.561 0.67701,2.76714 1.75189,4.23238 1.734921,1.29131 3.4885209,0.45491 3.7848509,-2.98128 z"
       id="path4435"
       inkscape:connector-curvature="0"
       sodipodi:nodetypes="ccssssssssssssssssccccsssssscssccsssssscsssssssccssccscs" />
  </g>
</svg>
