<?xml version="1.0" encoding="UTF-8" standalone="no"?>
<!-- Created with Inkscape (http://www.inkscape.org/) -->

<svg
   xmlns:dc="http://purl.org/dc/elements/1.1/"
   xmlns:cc="http://creativecommons.org/ns#"
   xmlns:rdf="http://www.w3.org/1999/02/22-rdf-syntax-ns#"
   xmlns:svg="http://www.w3.org/2000/svg"
   xmlns="http://www.w3.org/2000/svg"
   xmlns:sodipodi="http://sodipodi.sourceforge.net/DTD/sodipodi-0.dtd"
   xmlns:inkscape="http://www.inkscape.org/namespaces/inkscape"
   width="69.801598mm"
   height="12.791171mm"
   viewBox="0 0 247.3285 45.323047"
   id="svg4986"
   version="1.1"
   inkscape:version="0.91 r13725"
   sodipodi:docname="logo.svg">
  <defs
     id="defs4988" />
  <sodipodi:namedview
     id="base"
     pagecolor="#ffffff"
     bordercolor="#666666"
     borderopacity="1.0"
     inkscape:pageopacity="0.0"
     inkscape:pageshadow="2"
     inkscape:zoom="11.2"
     inkscape:cx="234.40972"
     inkscape:cy="19.286209"
     inkscape:document-units="px"
     inkscape:current-layer="layer1"
     showgrid="false"
     fit-margin-top="0"
     fit-margin-left="0"
     fit-margin-right="0"
     fit-margin-bottom="0"
     inkscape:window-width="1231"
     inkscape:window-height="1006"
     inkscape:window-x="49"
     inkscape:window-y="0"
     inkscape:window-maximized="1" />
  <metadata
     id="metadata4991">
    <rdf:RDF>
      <cc:Work
         rdf:about="">
        <dc:format>image/svg+xml</dc:format>
        <dc:type
           rdf:resource="http://purl.org/dc/dcmitype/StillImage" />
        <dc:title />
      </cc:Work>
    </rdf:RDF>
  </metadata>
  <g
     inkscape:label="Layer 1"
     inkscape:groupmode="layer"
     id="layer1"
     transform="translate(-290.75418,-363.64722)">
    <path
       style="font-style:normal;font-weight:normal;font-size:47.95193863px;line-height:125%;font-family:sans-serif;letter-spacing:0px;word-spacing:0px;fill:#eeeeee;fill-opacity:1;stroke:none;stroke-width:1px;stroke-linecap:butt;stroke-linejoin:miter;stroke-opacity:1"
       d="m 334.44766,390.441 c 0,5.99399 0,11.98798 0,17.98197 -11.98798,0 -23.97597,0 -35.96395,0 0,-5.99399 0,-11.98798 0,-17.98197 1.998,0 3.99599,0 5.99399,0 0,3.99599 0,7.99199 0,11.98798 7.99199,0 15.98398,0 23.97597,0 0,-3.99599 0,-7.99199 0,-11.98798 1.998,0 3.99599,0 5.99399,0 z m 5.99399,0.65559 c -7.99199,-6.18131 -15.98398,-12.36261 -23.97597,-18.54391 -7.99198,6.1813 -15.98397,12.3626 -23.97596,18.54391 0,-2.52872 0,-5.05743 0,-7.58615 7.99199,-6.21252 15.98398,-12.42504 23.97596,-18.63757 7.99199,6.21253 15.98398,12.42505 23.97597,18.63757 0,2.52872 0,5.05743 0,7.58615 z"
       id="text5282"
       inkscape:connector-curvature="0" />
    <g
       style="font-style:normal;font-weight:normal;font-size:48.69041061px;line-height:125%;font-family:sans-serif;letter-spacing:68.53201294px;word-spacing:0px;fill:#000000;fill-opacity:1;stroke:none;stroke-width:1px;stroke-linecap:butt;stroke-linejoin:miter;stroke-opacity:1"
       id="text5286">
      <path
         style="font-style:normal;font-variant:normal;font-weight:normal;font-stretch:normal;font-family:Trykker;-inkscape-font-specification:Trykker;letter-spacing:6.45146275px;fill:#eeeeee;fill-opacity:1"
         d="m 359.52959,405.51517 c 1.21251,-0.34077 2.42501,-0.68154 3.63752,-1.02231 0.44379,-9.77929 0.88759,-19.55858 1.33138,-29.33787 -1.41855,-0.24567 -2.83711,-0.49135 -4.25566,-0.73702 -0.35712,-0.67609 0.15032,-1.47797 0.16451,-2.20808 0.39566,-0.3437 1.32961,-0.0458 1.9299,-0.1456 2.19444,0 4.38888,0 6.58332,0 4.10508,9.25625 8.21017,18.5125 12.31525,27.76875 3.77224,-9.25625 7.54448,-18.5125 11.31672,-27.76875 3.00353,0 6.00705,0 9.01058,0 0.75509,0.32925 0.0362,1.21607 0.0627,1.82094 0.0493,0.88867 -1.07515,0.5592 -1.6566,0.79327 -0.94272,0.15883 -1.88543,0.31766 -2.82815,0.47649 0.44379,9.77929 0.88759,19.55858 1.33138,29.33787 1.33138,0.26945 2.66275,0.53889 3.99413,0.80834 0.35712,0.68604 -0.16925,1.49582 -0.19019,2.23481 -3.91489,0 -7.82977,0 -11.74466,0 -0.25272,-0.61845 0.14041,-1.35555 0.14265,-2.02084 1.12533,-0.34077 2.25066,-0.68154 3.37599,-1.02231 -0.37247,-8.70151 -0.74494,-17.40302 -1.11741,-26.10453 -3.76138,8.99593 -7.45896,18.02193 -11.26025,26.99905 -0.78537,1.17831 -2.37136,1.38567 -2.56657,-0.19045 -4.01332,-8.746 -8.02664,-17.49201 -12.03996,-26.23801 -0.35662,8.51131 -0.71323,17.02263 -1.06985,25.53394 1.12533,0.26945 2.25066,0.53889 3.37599,0.80834 0.35689,0.68464 -0.15246,1.49594 -0.16642,2.23481 -3.26505,0 -6.53009,0 -9.79514,0 -0.2574,-0.59038 0.12599,-1.3763 0.11887,-2.02084 z"
         id="path4139"
         inkscape:connector-curvature="0" />
      <path
         style="font-style:normal;font-variant:normal;font-weight:normal;font-stretch:normal;font-family:Trykker;-inkscape-font-specification:Trykker;letter-spacing:6.45146275px;fill:#eeeeee;fill-opacity:1"
         d="m 414.67146,405.51517 c 1.21251,-0.34077 2.42501,-0.68154 3.63752,-1.02231 0.44379,-9.77929 0.88759,-19.55858 1.33138,-29.33787 -1.41855,-0.24567 -2.83711,-0.49135 -4.25566,-0.73702 -0.35712,-0.67609 0.15032,-1.47797 0.16451,-2.20808 0.39566,-0.3437 1.32961,-0.0458 1.9299,-0.1456 2.19444,0 4.38889,0 6.58333,0 4.10508,9.25625 8.21017,18.5125 12.31525,27.76875 3.77224,-9.25625 7.54447,-18.5125 11.31671,-27.76875 3.00353,0 6.00705,0 9.01058,0 0.75511,0.32924 0.0362,1.21607 0.0627,1.82094 0.0493,0.88867 -1.07515,0.5592 -1.6566,0.79327 -0.94272,0.15883 -1.88543,0.31766 -2.82815,0.47649 0.44379,9.77929 0.88759,19.55858 1.33138,29.33787 1.33138,0.26945 2.66276,0.53889 3.99414,0.80834 0.3571,0.68604 -0.16926,1.49582 -0.1902,2.23481 -3.91489,0 -7.82977,0 -11.74466,0 -0.25272,-0.61845 0.14041,-1.35555 0.14265,-2.02084 1.12533,-0.34077 2.25066,-0.68154 3.37599,-1.02231 -0.37247,-8.70151 -0.74493,-17.40302 -1.1174,-26.10453 -3.76138,8.99593 -7.45896,18.02194 -11.26025,26.99905 -0.78537,1.17831 -2.37137,1.38567 -2.56658,-0.19045 -4.01332,-8.746 -8.02663,-17.49201 -12.03995,-26.23801 -0.35662,8.51131 -0.71324,17.02263 -1.06986,25.53394 1.12533,0.26945 2.25066,0.53889 3.37599,0.80834 0.35691,0.68463 -0.15246,1.49594 -0.16642,2.23481 -3.26505,0 -6.53009,0 -9.79514,0 -0.25738,-0.59039 0.12599,-1.3763 0.11887,-2.02084 z"
         id="path4141"
         inkscape:connector-curvature="0" />
      <path
         style="font-style:normal;font-variant:normal;font-weight:normal;font-stretch:normal;font-family:Trykker;-inkscape-font-specification:Trykker;letter-spacing:6.45146275px;fill:#eeeeee;fill-opacity:1"
         d="m 471.78663,397.85974 c 1.45057,-0.34053 2.29211,0.59047 1.90373,2.00218 -0.2155,1.64595 0.47069,3.03126 2.0234,3.68325 2.90547,1.80675 6.64703,2.65145 9.91378,1.3578 2.54095,-1.10339 3.48358,-4.34965 2.6961,-6.85052 -1.06433,-2.46156 -3.62464,-3.73037 -5.87934,-4.90667 -3.13729,-1.61336 -6.52588,-2.97205 -9.03041,-5.5329 -1.72871,-1.71612 -2.7381,-4.13209 -2.51733,-6.58148 0.13493,-4.2675 3.57664,-7.86748 7.60967,-8.88451 4.58104,-1.16799 9.51796,-0.0434 13.53637,2.31863 -0.56267,2.47256 -1.12533,4.94512 -1.688,7.41768 -1.61221,0.42734 -2.10689,-0.73421 -1.90203,-2.11594 0.22734,-1.72364 -0.62939,-3.03302 -2.28968,-3.58024 -2.43102,-1.1892 -5.28303,-1.74097 -7.95531,-1.19846 -2.37924,0.59037 -3.78134,3.19079 -3.35408,5.53503 0.18145,2.51881 2.45085,4.1265 4.43917,5.30137 3.51948,1.98933 7.44847,3.39683 10.44653,6.18651 1.95862,1.84278 3.15685,4.50265 2.90737,7.21605 -0.11631,3.76836 -2.90415,7.07601 -6.4233,8.24242 -3.75551,1.29061 -7.92343,1.17111 -11.7232,0.12363 -1.57168,-0.50186 -3.14208,-1.17134 -4.37771,-2.29237 0.55477,-2.48047 1.10944,-4.96107 1.66427,-7.44146 z"
         id="path4143"
         inkscape:connector-curvature="0" />
      <path
         style="font-style:normal;font-variant:normal;font-weight:normal;font-stretch:normal;font-family:Trykker;-inkscape-font-specification:Trykker;letter-spacing:6.45146275px;fill:#eeeeee;fill-opacity:1"
         d="m 505.91174,399.95191 c -3.158,-5.53575 -2.7809,-12.55908 -0.17645,-18.22919 2.56334,-5.70892 8.42326,-9.72431 14.68268,-9.99871 4.71245,-0.17909 9.62614,0.49997 13.78556,2.83661 -0.57059,2.40916 -1.14118,4.81832 -1.71177,7.22748 -1.67744,0.46594 -2.21865,-0.77815 -2.00823,-2.22394 0.0272,-1.31305 -0.25316,-2.73431 -1.76678,-3.07965 -3.1312,-1.2009 -6.55219,-1.60948 -9.89201,-1.51007 -4.73098,0.42562 -8.32799,4.52245 -9.51137,8.91528 -1.41841,5.40218 -1.0579,11.67889 2.49554,16.21784 2.6641,3.56301 7.19729,5.77213 11.67185,5.10077 2.50068,-0.30518 5.04638,-1.08351 7.01388,-2.71254 0,-2.742 0,-5.48401 0,-8.22601 -2.44878,-0.24567 -4.89757,-0.49135 -7.34635,-0.73702 0,-0.72909 0,-1.45817 0,-2.18726 4.31113,0 8.62226,0 12.93339,0 -0.0566,0.64354 0.11229,1.41065 -0.0825,1.97843 -0.4525,0.3571 -1.26959,0.51439 -1.03486,1.24813 0,3.12466 0,6.24932 0,9.37398 -4.0686,3.59039 -9.75577,4.51496 -15.01515,4.4362 -5.71987,-0.21467 -11.22741,-3.40353 -14.03738,-8.43033 z"
         id="path4145"
         inkscape:connector-curvature="0" />
    </g>
  </g>
</svg>
