<?xml version="1.0" encoding="UTF-8" standalone="no"?>
<!-- Created with Inkscape (http://www.inkscape.org/) -->

<svg
   xmlns:dc="http://purl.org/dc/elements/1.1/"
   xmlns:cc="http://creativecommons.org/ns#"
   xmlns:rdf="http://www.w3.org/1999/02/22-rdf-syntax-ns#"
   xmlns:svg="http://www.w3.org/2000/svg"
   xmlns="http://www.w3.org/2000/svg"
   xmlns:sodipodi="http://sodipodi.sourceforge.net/DTD/sodipodi-0.dtd"
   xmlns:inkscape="http://www.inkscape.org/namespaces/inkscape"
   width="43.744446mm"
   height="43.744446mm"
   viewBox="0 0 155.00002 155.00001"
   id="svg3656"
   version="1.1"
   inkscape:version="0.91 r13725"
   sodipodi:docname="kinesitherapie.svg">
  <defs
     id="defs3658" />
  <sodipodi:namedview
     id="base"
     pagecolor="#ffffff"
     bordercolor="#666666"
     borderopacity="1.0"
     inkscape:pageopacity="0.0"
     inkscape:pageshadow="2"
     inkscape:zoom="1.979899"
     inkscape:cx="67.398304"
     inkscape:cy="61.452215"
     inkscape:document-units="px"
     inkscape:current-layer="layer1"
     showgrid="false"
     fit-margin-top="0"
     fit-margin-left="0"
     fit-margin-right="0"
     fit-margin-bottom="0"
     inkscape:window-width="1231"
     inkscape:window-height="1006"
     inkscape:window-x="49"
     inkscape:window-y="0"
     inkscape:window-maximized="1" />
  <metadata
     id="metadata3661">
    <rdf:RDF>
      <cc:Work
         rdf:about="">
        <dc:format>image/svg+xml</dc:format>
        <dc:type
           rdf:resource="http://purl.org/dc/dcmitype/StillImage" />
        <dc:title></dc:title>
      </cc:Work>
    </rdf:RDF>
  </metadata>
  <g
     inkscape:label="Layer 1"
     inkscape:groupmode="layer"
     id="layer1"
     transform="translate(117.4891,-368.21762)">
    <rect
       style="fill:#ff7a7a;fill-opacity:0;stroke:none;stroke-width:40;stroke-miterlimit:4;stroke-dasharray:none;stroke-dashoffset:0;stroke-opacity:1"
       id="rect3685"
       width="155"
       height="155"
       x="-117.4891"
       y="368.21762" />
    <path
       style="fill:#666666;fill-opacity:1"
       d="m -37.669698,507.9324 c 0,-3.09633 1.9875,-6.33573 3.88722,-6.33573 1.80708,0 5.42595,-14.83703 5.42595,-22.24594 0,-2.72083 1.34245,-3.16789 5.13839,-1.71125 1.99224,0.7645 2.01102,1.91779 0.14537,8.92513 -2.69669,10.12865 -2.71555,12.46556 -0.0925,11.45899 2.93694,-1.127 14.0792292,5.43692 14.6998692,8.6597 0.45847,2.38063 -1.11699,2.67435 -14.3446392,2.67435 -8.17283,0 -14.85967,-0.64135 -14.85967,-1.42525 z m 1.52561,-41.82368 -10.04935,-9.10062 -4.6853,7.16038 -4.68529,7.16037 -20.76344,0 c -18.08717,0 -20.98429,-0.35012 -22.47686,-2.71635 -1.246392,-1.97595 -1.248262,-3.45672 -0.006,-5.43268 1.37441,-2.18761 4.66946,-2.86742 16.92805,-3.49244 l 15.22145,-0.7761 12.08187,-19.3589 c 6.64504,-10.64741 11.87364,-19.56715 11.61913,-19.82166 -0.25451,-0.25451 -7.71304,1.29282 -16.57451,3.43852 -8.86148,2.14569 -17.2812,3.5301 -18.7105,3.07646 -3.10611,-0.98584 -4.67882,-4.48104 -3.45331,-7.67466 0.9926,-2.58668 2.78969,-3.11381 35.20409,-10.32623 28.14055,-6.26145 28.55352,-6.13464 36.101399,11.08547 l 5.1026802,11.64147 10.521224,0.46634 c 11.1733198,0.49524 14.5311298,2.03282 14.5311298,6.65399 0,4.34032 -4.87209,6.07334 -17.0741498,6.07334 -13.4497542,0 -15.9844142,-1.22328 -19.2032332,-9.26789 -1.37631,-3.43974 -2.80672,-6.25407 -3.17866,-6.25407 -0.37195,0 -3.24988,4.23659 -6.39538,9.41464 l -5.71909,9.41464 8.7111,8.10704 c 8.7814,8.17249 10.045599,11.13131 7.1043,16.62721 -3.0181,5.63935 -9.28284,3.74341 -20.15053,-6.09827 z m 14.69051,2.75926 c -0.49976,-0.80864 -1.57028,-1.06136 -2.37893,-0.56159 -0.80864,0.49976 -1.06136,1.57028 -0.56159,2.37893 0.49976,0.80864 1.57029,1.06136 2.37893,0.56159 0.80865,-0.49977 1.06137,-1.57028 0.56159,-2.37893 z m 1.1286,-67.09994 c -7.05589,-7.51066 -1.80798,-19.69046 8.484029,-19.69046 5.9986902,0 11.42395025,5.63185 11.42395025,11.85899 0,10.04535 -13.01737925,15.16617 -19.90797925,7.83147 z"
       id="path4470"
       inkscape:connector-curvature="0" />
  </g>
</svg>
