<?xml version="1.0" encoding="UTF-8" standalone="no"?>
<!-- Created with Inkscape (http://www.inkscape.org/) -->

<svg
   xmlns:dc="http://purl.org/dc/elements/1.1/"
   xmlns:cc="http://creativecommons.org/ns#"
   xmlns:rdf="http://www.w3.org/1999/02/22-rdf-syntax-ns#"
   xmlns:svg="http://www.w3.org/2000/svg"
   xmlns="http://www.w3.org/2000/svg"
   xmlns:sodipodi="http://sodipodi.sourceforge.net/DTD/sodipodi-0.dtd"
   xmlns:inkscape="http://www.inkscape.org/namespaces/inkscape"
   width="43.744442mm"
   height="43.744446mm"
   viewBox="0 0 155 155.00001"
   id="svg3656"
   version="1.1"
   inkscape:version="0.91 r13725"
   sodipodi:docname="soins-infirmiers.svg">
  <defs
     id="defs3658" />
  <sodipodi:namedview
     id="base"
     pagecolor="#ffffff"
     bordercolor="#666666"
     borderopacity="1.0"
     inkscape:pageopacity="0.0"
     inkscape:pageshadow="2"
     inkscape:zoom="1.979899"
     inkscape:cx="-112.08514"
     inkscape:cy="120.08714"
     inkscape:document-units="px"
     inkscape:current-layer="layer1"
     showgrid="false"
     fit-margin-top="0"
     fit-margin-left="0"
     fit-margin-right="0"
     fit-margin-bottom="0"
     inkscape:window-width="1231"
     inkscape:window-height="1006"
     inkscape:window-x="49"
     inkscape:window-y="0"
     inkscape:window-maximized="1" />
  <metadata
     id="metadata3661">
    <rdf:RDF>
      <cc:Work
         rdf:about="">
        <dc:format>image/svg+xml</dc:format>
        <dc:type
           rdf:resource="http://purl.org/dc/dcmitype/StillImage" />
        <dc:title />
      </cc:Work>
    </rdf:RDF>
  </metadata>
  <g
     inkscape:label="Layer 1"
     inkscape:groupmode="layer"
     id="layer1"
     transform="translate(21.090698,-426.85254)">
    <rect
       style="fill:#ff7a7a;fill-opacity:0;stroke:none;stroke-width:40;stroke-miterlimit:4;stroke-dasharray:none;stroke-dashoffset:0;stroke-opacity:1"
       id="rect3685"
       width="155"
       height="155"
       x="-21.090698"
       y="426.85254" />
    <g
       style="fill:#666666;fill-opacity:1"
       id="g4873"
       transform="matrix(4.5021974,0,0,4.5021974,-100.44612,347.47434)">
      <path
         id="path4875"
         d="m 49.042,48.601 -6.458,-6.354 c 0.084,-0.279 0.197,-0.711 0.122,-0.785 l -2.413,-2.383 0.141,-0.143 c 0.049,-0.05 0.049,-0.13 -0.002,-0.179 L 40.37,38.695 c -0.05,-0.048 -0.13,-0.048 -0.178,10e-4 l -0.142,0.143 -0.128,-0.127 -0.012,-1.947 -0.028,0.029 c 0.02,-0.03 0.023,-0.064 0.013,-0.098 l 0.003,-0.003 -0.011,-0.011 c -0.005,-0.009 -0.01,-0.019 -0.018,-0.026 -0.009,-0.007 -0.018,-0.013 -0.027,-0.018 l -1.271,-1.257 -9.454,-9.338 -0.826,-0.817 1.151,-1.167 c 0.087,-0.087 0.086,-0.229 -0.002,-0.315 l -0.11,-0.11 c -0.088,-0.086 -0.23,-0.086 -0.316,0.002 l -1.354,1.37 -3.615,-3.543 0.424,-0.429 c 0.117,-0.118 0.116,-0.311 -0.002,-0.428 -0.118,-0.115 -0.311,-0.114 -0.427,0.004 l -3.613,3.656 c -0.115,0.118 -0.114,0.311 0.003,0.428 0.118,0.116 0.311,0.114 0.428,-0.004 l 0.424,-0.429 3.615,3.543 -1.36,1.377 c -0.087,0.087 -0.086,0.229 0.003,0.316 l 0.11,0.11 c 0.088,0.086 0.229,0.085 0.315,-0.003 l 1.152,-1.167 0.797,0.786 0.708,-0.707 0.38,0.38 -0.706,0.705 1.982,1.959 0.693,-0.693 0.381,0.38 -0.69,0.692 1.826,1.805 0.681,-0.68 0.38,0.38 -0.677,0.678 2.048,2.022 0.666,-0.664 0.38,0.38 -0.663,0.663 1.828,1.806 0.65,-0.652 0.381,0.382 -0.649,0.647 1.158,1.146 c 0.005,0.01 0.01,0.02 0.019,0.026 0.008,0.007 0.018,0.013 0.026,0.018 l 0.011,0.011 0.003,-0.004 c 0.032,0.012 0.067,0.006 0.098,-0.014 l -0.028,0.028 1.948,-0.012 0.128,0.126 -0.141,0.142 c -0.05,0.05 -0.05,0.129 10e-4,0.18 l 0.063,0.062 c 0.049,0.049 0.129,0.047 0.177,-0.002 l 0.143,-0.142 2.412,2.383 c 0.081,0.081 0.545,-0.037 0.805,-0.11 l 6.438,6.332 c 0.048,0.049 0.564,0.293 0.564,0.293 0,0 -0.247,-0.521 -0.296,-0.568"
         inkscape:connector-curvature="0"
         style="fill:#666666;fill-opacity:1" />
    </g>
  </g>
</svg>
